<svg id="Livello_1" data-name="Livello 1" xmlns="http://www.w3.org/2000/svg" xmlns:xlink="http://www.w3.org/1999/xlink" viewBox="0 0 1496.79 362"><defs><style>.cls-1{fill:none;}.cls-2{clip-path:url(#clip-path);}.cls-3{fill:#73c2be;}.cls-4{fill:#78c0e0;}.cls-5{fill:#9d68a3;}.cls-6{fill:#ed8478;}.cls-7{fill:#01a9f3;}.cls-8{fill:#e33e2b;}.cls-9{fill:#9cfffa;}.cls-10,.cls-9{isolation:isolate;}.cls-10{fill:#b9e7fb;}.cls-11{fill:#c09ec4;}.cls-12{fill:#505052;}.cls-13{fill:#fff;stroke:#fff;stroke-miterlimit:10;stroke-width:4.09px;}</style><clipPath id="clip-path"><rect class="cls-1" x="44.57" y="63.59" width="247.91" height="247.91" rx="58.19" ry="58.19" transform="translate(-83.26 174.1) rotate(-45)"/></clipPath></defs><title>logo_mburger</title><g class="cls-2"><rect class="cls-3" x="127.16" y="146.23" width="82.7" height="82.7" transform="translate(-83.28 174.09) rotate(-45)"/><rect class="cls-4" x="68.71" y="204.61" width="82.7" height="82.7" transform="translate(-141.68 149.86) rotate(-45)"/><rect class="cls-5" x="185.6" y="87.7" width="82.7" height="82.7" transform="translate(-24.78 198.28) rotate(-45)"/><rect class="cls-6" x="185.61" y="204.6" width="82.7" height="82.7" transform="translate(-107.44 232.52) rotate(-45)"/><rect class="cls-7" x="127.16" y="263.13" width="82.7" height="82.7" transform="translate(-165.94 208.34) rotate(-45)"/><rect class="cls-8" x="244.06" y="146.22" width="82.7" height="82.7" transform="translate(-49.04 256.75) rotate(-45)"/><rect class="cls-9" x="68.7" y="87.71" width="82.7" height="82.7" transform="translate(-59.02 115.62) rotate(-45)"/><rect class="cls-10" x="10.25" y="146.23" width="82.7" height="82.7" transform="translate(-117.53 91.43) rotate(-45)"/><rect class="cls-11" x="127.15" y="29.32" width="82.7" height="82.7" transform="translate(-0.62 139.85) rotate(-45)"/></g><path class="cls-12" d="M585.14,262.9h-21.3V168.4c0-11.9-3.5-22.1-10.3-30.5s-15.9-12.7-27-12.7a43.21,43.21,0,0,0-29.4,11.1,35.55,35.55,0,0,0-12.2,27.5v99.1h-21.6V163.8a34.94,34.94,0,0,0-12.4-27.5,42.17,42.17,0,0,0-29.2-11.1c-11.1,0-20,4.3-26.7,12.7s-10,18.4-10,30.5v94.5h-21.3V170.8c0-19.2,5.4-34.8,16.5-46.4q15.45-16.65,40.5-18.6c22.4-1.9,40.2,7.8,53.5,28.6,13.2-20.8,31.1-30.5,53.5-28.6,16.7,1.3,30.2,7.6,40.8,18.6,11.1,11.6,16.7,27.3,16.7,46.4v92.1Z"/><path class="cls-12" d="M606.74,184.6V54.7h20.2v77.8c15.1-17.6,34-26.5,56.7-27.3,22.1-.8,41.3,6.8,57.2,23,16.2,16.2,24.3,35.4,24.3,57.8,0,21.6-7.6,40.2-22.4,55.9s-33.2,23.8-54.5,24.6c-22.1.8-41.3-7-57.8-23.2s-24.3-35.4-23.8-57.5v-1.2ZM728.24,227a59.19,59.19,0,0,0,16.2-42.7c-.3-16.2-6.2-30-17.8-41.6-11.3-11.6-25.1-17.5-41.6-17.5a53.37,53.37,0,0,0-40.2,17.3c-11,11.6-17,25.4-17.3,41.6-.5,17,5.1,31.9,17.3,44.6,12.2,12.4,26.5,18.4,43.2,17.6A56.93,56.93,0,0,0,728.24,227Z"/><path class="cls-12" d="M919.14,196.7q0,30-19.4,50c-12.7,13.2-28.9,20-48.6,20s-35.9-6.8-48.9-20c-12.7-13.2-19.2-30-19.2-50V109h20.8v90.2c0,13,4.6,24,14,33.5,9.5,9.2,20.5,13.8,33.2,13.8s23.5-4.6,32.9-13.8c9.5-9.5,14.3-20.5,14.3-33.5V109H919v87.7Z"/><path class="cls-12" d="M962.14,262.9h-21.6V109h19.2v21.9c4.3-8.4,10.8-14.6,19.2-19.2a47.73,47.73,0,0,1,23.8-5.7v20.5c-9.5.3-17.3,3-23.2,7.8s-10,9.2-12.2,12.7c-3.5,5.9-5.1,13.8-5.1,23.8v92.1Z"/><path class="cls-12" d="M1176.74,255.6c0,19.4-8.1,35.6-24,48.3s-34,18.9-54.5,18.1c-18.4-.8-34.3-6.2-47.5-16.7a72.39,72.39,0,0,1-25.4-38.6h20c3,10.5,10,19.7,20.5,27.3a56.92,56.92,0,0,0,34.8,11.6c15.1-.3,28.1-5.4,39.2-15.9,11.1-10.3,16.7-22.7,16.7-37V238c-15.1,17.3-34,26.5-56.7,27.3-22.1.8-41.3-7-57.2-23-15.9-16.2-24-35.6-24-58.1,0-21.6,7.3-40.2,22.1-55.9s33.2-23.8,54.5-24.6q33.15-.75,57.5,23.5c16.5,15.9,24.3,35.1,24,57.2Zm-38.1-27.8c11.1-11.6,17-25.4,17.3-41.6.5-17-5.1-31.6-17.3-44.3-11.9-12.7-26.2-18.6-43.2-17.8-15.9.8-29.2,7.3-40.2,19.4s-16.5,26.2-16.2,42.4c.3,16.5,6.2,30.2,17.8,41.9s25.4,17.3,41.6,17.3C1114.34,245.1,1127.64,239.4,1138.64,227.8Z"/><path class="cls-12" d="M1355.44,179a77.86,77.86,0,0,1-10.5,47.9,79.6,79.6,0,0,1-35.5,32.2q-28.65,13.35-60.4,2c-21.3-7.9-36.6-21.5-45.8-41.3-9.9-20.7-10.7-42.3-2.2-64.1,8.7-22.2,23.4-37.5,44.9-45.6q28.95-10.8,59.2,1.3c19.6,8.1,33.3,20.8,41.2,38.3l4.5,10.1-126.1,56.6c7.8,13.4,19,22.5,33.7,26.9a58.66,58.66,0,0,0,43.3-3.2c22.1-10.2,33.2-27.6,33.7-52.1Zm-30.7-28.3c-8.6-11.8-19.5-19.7-32.7-23.5s-26.7-2.8-40.4,3a58.44,58.44,0,0,0-30.1,28c-6.4,12.7-7.7,26.3-4.5,40.8Z"/><path class="cls-12" d="M1395.94,262.9h-21.6V109h19.2v21.9c4.3-8.4,10.8-14.6,19.2-19.2a47.73,47.73,0,0,1,23.8-5.7v20.5c-9.5.3-17.3,3-23.2,7.8s-10,9.2-12.2,12.7c-3.5,5.9-5.1,13.8-5.1,23.8v92.1Z"/><path id="Fill-29" class="cls-13" d="M168.53,105.57c-17.67,0-34.23,5.67-46.62,16a59.65,59.65,0,0,0-21.66,42.39,7.53,7.53,0,0,0,4.49,7.43,7.67,7.67,0,0,0,3.1.66H229.22a7.6,7.6,0,0,0,7.58-8.1,59.58,59.58,0,0,0-21.64-42.37c-12.4-10.31-29-16-46.63-16m0,7.52c16.28,0,30.95,5.23,41.77,14.23a52.3,52.3,0,0,1,19,37.15l0,0H107.8a52.27,52.27,0,0,1,19-37.16c10.82-9,25.49-14.23,41.77-14.23"/><path id="Fill-31" class="cls-13" d="M224.94,229.84H112.13a11.84,11.84,0,0,0-11.9,11.7,20.41,20.41,0,0,0,20.57,20.1h95.45c11.33,0,20.55-9,20.57-20.07a11.84,11.84,0,0,0-11.88-11.73m0,7.52a4.27,4.27,0,0,1,4.34,4.19,12.81,12.81,0,0,1-13,12.56H120.81a12.81,12.81,0,0,1-13-12.56,4.27,4.27,0,0,1,4.33-4.19H224.92"/><path id="Fill-33" class="cls-13" d="M184.27,198.21l10.17,10.13a13.5,13.5,0,0,0,19,0l10.18-10.13a5.59,5.59,0,0,1,7.87,0l9,9a3.94,3.94,0,0,0,5.56,0,3.9,3.9,0,0,0,0-5.54l-9-9a13.5,13.5,0,0,0-19,0L207.88,202.8a5.59,5.59,0,0,1-7.87,0l-10.18-10.13a13.5,13.5,0,0,0-19,0l-1.15,1.15-7.87,7.83-1.15,1.15a5.59,5.59,0,0,1-7.87,0l-10.18-10.13a13.48,13.48,0,0,0-19,0L113.44,202.8a5.59,5.59,0,0,1-7.87,0l-9-9a4,4,0,0,0-5.57,0,3.91,3.91,0,0,0,0,5.54l9,9a13.48,13.48,0,0,0,19,0l10.18-10.13a5.59,5.59,0,0,1,7.87,0l10.18,10.13a13.48,13.48,0,0,0,19,0l1.16-1.15,9-9a5.56,5.56,0,0,1,3.93-1.62A6.28,6.28,0,0,1,184.27,198.21Z"/><circle class="cls-7" cx="1457.1" cy="242.33" r="20.57"/></svg>